<svg width="16" height="15" viewBox="0 0 16 15" fill="none" xmlns="http://www.w3.org/2000/svg">
<path d="M13.5 11.5H5L2.5 1H1M3 3H15L13.5 9.5H4.5L3 3Z" stroke="white" stroke-linecap="round" stroke-linejoin="round"/>
<path d="M12.5 14.5C13.0523 14.5 13.5 14.0523 13.5 13.5C13.5 12.9477 13.0523 12.5 12.5 12.5C11.9477 12.5 11.5 12.9477 11.5 13.5C11.5 14.0523 11.9477 14.5 12.5 14.5Z" stroke="white" stroke-linecap="round" stroke-linejoin="round"/>
<path d="M6 14.5C6.55228 14.5 7 14.0523 7 13.5C7 12.9477 6.55228 12.5 6 12.5C5.44772 12.5 5 12.9477 5 13.5C5 14.0523 5.44772 14.5 6 14.5Z" stroke="white" stroke-linecap="round" stroke-linejoin="round"/>
</svg>
